<svg width="259" height="60" viewBox="0 0 259 60" fill="none" xmlns="http://www.w3.org/2000/svg">
<path d="M113.396 43.7184C113.396 44.1178 113.236 44.3574 112.837 44.3574H105.887C105.488 44.3574 105.328 44.1178 105.328 43.6385C105.328 42.2806 105.408 40.2836 105.488 37.6476C105.567 35.0115 105.647 33.0146 105.647 31.6566C105.647 31.2572 105.567 31.0974 105.488 31.0176C105.328 31.0974 104.449 33.0944 102.852 37.0884C101.893 39.4049 100.934 41.7214 99.9759 44.1178C99.8161 44.4373 99.6564 44.5971 99.4966 44.677C99.4167 44.677 99.1771 44.677 98.6978 44.677C97.9789 44.677 97.5795 44.5172 97.4996 44.2776C96.7807 42.8397 95.8222 40.7629 94.7039 37.9671C93.5057 35.0115 92.5471 32.9347 91.9081 31.6566C91.9081 31.5767 91.8282 31.4968 91.7483 31.417C91.6684 31.4968 91.5886 31.7365 91.5886 31.9761C91.5886 33.2542 91.5886 35.1713 91.6684 37.8073C91.7483 40.3635 91.7483 42.2806 91.7483 43.6385C91.7483 44.1178 91.5886 44.3574 91.1892 44.3574H84.5592C84.3195 44.3574 84.1598 44.2776 84.0799 44.1977C84 44.1178 84 43.958 84 43.7184C84 42.2806 84.0799 40.1238 84.2396 37.2482C84.3994 34.3725 84.4793 32.2158 84.4793 30.7779C84.4793 29.2602 84.3994 26.3846 84.3195 22.2308C84.3195 21.1125 84.2396 19.5149 84.1598 17.3582V17.0386C84.1598 16.799 84.3994 16.6393 84.9586 16.6393C85.6775 16.6393 86.7958 16.6393 88.2336 16.5594C89.6714 16.4795 90.7898 16.4795 91.5087 16.4795C91.6684 16.4795 91.8282 16.7191 92.1477 17.2783L97.899 29.8992C98.2984 30.7779 98.618 31.1773 98.9375 31.1773C99.0972 31.1773 99.4167 30.698 99.896 29.7395C101.254 26.9437 103.171 22.79 105.807 17.2783C106.047 16.799 106.286 16.4795 106.526 16.4795C106.925 16.4795 107.485 16.4795 108.283 16.5594C109.082 16.6393 109.641 16.6393 110.041 16.6393C110.36 16.6393 110.84 16.6393 111.558 16.5594C111.958 16.4795 112.437 16.4795 112.757 16.4795C113.156 16.4795 113.316 16.6393 113.316 16.9588C113.316 18.4765 113.236 20.793 113.156 23.9083C113.076 27.0236 112.996 29.3401 112.996 30.8578C112.996 32.2956 113.076 34.4524 113.156 37.328C113.316 40.1238 113.396 42.2806 113.396 43.7184Z" fill="#333333"/>
<path d="M143.031 43.7983C143.031 44.0379 142.871 44.1977 142.552 44.2775C142.152 44.3574 140.954 44.4373 138.877 44.4373C136.96 44.4373 135.762 44.3574 135.283 44.2775C134.803 44.1977 134.564 43.8782 134.404 43.3989C133.925 41.4818 133.605 40.5232 133.366 40.3635C133.126 40.2836 131.369 40.2037 128.094 40.2037C125.857 40.2037 124.659 40.2836 124.499 40.3635C124.259 40.6031 124.02 41.2421 123.78 42.4403C123.54 43.5586 123.221 44.1178 122.901 44.1977C122.422 44.2775 120.984 44.3574 118.428 44.3574C116.431 44.3574 115.393 44.1977 115.393 43.7983C115.393 43.4788 116.91 39.2451 119.866 31.1773C123.061 22.4704 124.818 17.6777 125.138 16.799C125.298 16.3197 125.458 16.0801 125.697 16.0801C126.017 16.0801 126.576 16.0801 127.375 16.16C128.094 16.2398 128.653 16.2398 129.052 16.2398C129.372 16.2398 129.931 16.2398 130.65 16.16C131.369 16.0801 131.848 16.0801 132.167 16.0801C132.407 16.0801 132.647 16.3197 132.886 16.7191C133.366 18.2368 135.203 23.0296 138.318 31.0974C141.433 39.1653 143.031 43.4788 143.031 43.7983ZM129.052 25.8254C128.812 26.3845 128.333 27.6626 127.614 29.5797C126.895 31.6566 126.576 32.8548 126.576 33.1743C126.576 33.4139 126.975 33.5737 127.774 33.5737C128.173 33.5737 128.812 33.5737 129.771 33.5737C130.65 33.5737 131.129 33.4938 131.209 33.2542C131.209 33.1743 131.209 33.0944 131.209 33.0145C131.209 32.6151 130.889 31.4169 130.33 29.42C129.771 27.5827 129.372 26.3845 129.052 25.8254Z" fill="#333333"/>
<path d="M168.513 44.1176C168.513 44.1975 168.353 44.2774 168.113 44.2774C167.634 44.3572 166.356 44.3572 164.359 44.3572C162.601 44.3572 161.483 44.3572 160.844 44.2774C160.525 44.2774 160.365 44.1975 160.365 44.1975C160.285 44.1975 160.205 44.0377 160.125 43.7981C159.965 43.3188 159.646 42.52 159.247 41.4816C158.767 40.2035 157.968 38.2065 156.85 35.6504C156.611 35.1711 156.051 34.8516 155.253 34.7717C155.652 34.7717 154.933 34.7717 153.256 34.7717C153.096 34.7717 152.936 35.0912 152.936 35.8101C152.936 36.6888 153.016 38.0468 153.176 39.8041C153.335 41.5615 153.415 42.9194 153.415 43.7981C153.415 44.0377 153.335 44.1176 153.256 44.1975C153.096 44.1975 152.856 44.1975 152.696 44.1975C151.898 44.2774 150.699 44.2774 149.102 44.2774C147.185 44.2774 146.066 44.2774 145.747 44.1975C145.348 44.1176 145.188 43.878 145.188 43.5584C145.188 42.1206 145.268 39.9639 145.427 37.0083C145.587 34.0528 145.667 31.896 145.667 30.4582C145.667 24.8666 145.507 20.5531 145.268 17.4378V17.1982C145.268 16.9586 145.427 16.7988 145.907 16.7189C146.386 16.6391 148.303 16.5592 151.898 16.4793C154.294 16.3994 156.291 16.3994 157.729 16.3994C160.684 16.3994 163.161 17.0385 165.078 18.3964C167.234 19.9141 168.273 22.1507 168.273 25.0264C168.273 26.9435 168.033 28.4612 167.474 29.5795C166.915 30.6978 165.877 31.8162 164.439 32.9345C164.119 33.1741 163.959 33.3339 163.959 33.4936C163.959 33.4936 164.758 35.0912 166.356 38.4462C167.714 41.9609 168.513 43.7182 168.513 44.1176ZM160.205 26.3844C160.205 24.7868 159.646 23.6684 158.608 23.0294C157.809 22.5501 156.531 22.3105 154.773 22.3105C153.495 22.3105 152.856 22.4703 152.776 22.8697C152.776 23.4288 152.696 24.7069 152.696 26.7838C152.696 27.1033 152.696 27.5027 152.696 28.1417C152.696 28.7009 152.696 29.1801 152.696 29.4997C152.696 29.5795 152.936 29.6594 153.335 29.6594C154.134 29.7393 155.013 29.8192 155.892 29.8192C158.767 29.8192 160.205 28.7009 160.205 26.3844Z" fill="#333333"/>
<path d="M195.033 43.159C195.033 43.7181 194.793 44.1175 194.314 44.2773C193.914 44.437 192.876 44.437 191.198 44.437C189.601 44.437 188.403 44.3572 187.684 44.2773C187.364 44.1974 187.124 44.1175 186.965 44.0376C186.805 43.9578 186.725 43.798 186.565 43.4785C185.607 41.7211 184.648 39.9638 183.69 38.2064C182.092 35.3308 181.213 33.8131 180.894 33.4935C179.456 33.9728 178.737 34.3722 178.737 34.6119C178.737 35.5704 178.737 37.0881 178.817 39.0851C178.897 41.0821 178.897 42.5998 178.897 43.5584C178.897 43.9578 178.737 44.1974 178.338 44.2773C177.619 44.3572 176.421 44.437 174.663 44.437C172.986 44.437 171.788 44.3572 171.308 44.2773C170.909 44.1974 170.749 43.9578 170.749 43.6382C170.749 42.2004 170.829 40.0437 170.989 37.2479C171.149 34.3722 171.228 32.2155 171.228 30.7776C171.228 29.2599 171.149 26.9434 171.069 23.908C170.909 20.8726 170.909 18.5561 170.909 17.0384C170.909 16.7188 171.069 16.639 171.308 16.639C171.708 16.639 172.347 16.639 173.146 16.7188C173.944 16.7188 174.583 16.7987 174.983 16.7987C175.382 16.7987 176.021 16.7987 176.82 16.7188C177.619 16.7188 178.258 16.639 178.657 16.639C178.897 16.639 178.977 16.7188 178.977 16.9585C178.977 17.917 178.897 19.4347 178.817 21.3519C178.737 23.3488 178.657 24.7867 178.657 25.7452C178.657 26.8635 178.977 27.4227 179.616 27.4227C181.213 27.4227 182.412 27.0233 183.29 26.1446C183.929 25.5056 184.568 24.3873 185.207 22.7098C185.607 21.4317 186.326 19.5945 187.284 17.0384C187.444 16.7188 187.763 16.5591 188.163 16.5591C188.482 16.5591 189.042 16.5591 189.681 16.639C190.4 16.639 190.879 16.7188 191.198 16.7188C191.518 16.7188 192.077 16.7188 192.796 16.7188C193.515 16.7188 193.994 16.7188 194.393 16.7188C194.713 16.7188 194.873 16.8786 194.873 17.1981C194.873 17.5975 194.633 18.7158 194.074 20.3933C192.476 25.3458 190.559 28.4611 188.482 29.6593C188.083 29.899 187.843 30.1386 187.843 30.2984C187.843 30.2984 189.042 32.2155 191.518 36.2094C193.754 40.1235 195.033 42.44 195.033 43.159Z" fill="#333333"/>
<path d="M224.588 30.5381C224.588 34.6119 223.31 38.0467 220.674 40.8425C218.038 43.6383 214.603 45.0761 210.529 45.0761C206.455 45.0761 203.1 43.6383 200.384 40.8425C197.748 38.0467 196.47 34.6119 196.47 30.6179C196.47 26.5441 197.748 23.1093 200.384 20.3135C203.1 17.4378 206.455 16 210.529 16C214.523 16 217.958 17.4378 220.594 20.3135C223.31 23.0294 224.588 26.4642 224.588 30.5381ZM217.159 30.4582C217.159 28.4612 216.6 26.7837 215.402 25.4258C214.124 23.988 212.526 23.269 210.609 23.269C208.772 23.269 207.174 23.988 205.896 25.5057C204.618 26.9435 204.059 28.621 204.059 30.4582C204.059 32.4552 204.618 34.1326 205.816 35.4906C207.014 36.9284 208.692 37.5675 210.609 37.5675C212.446 37.5675 214.044 36.8486 215.322 35.3308C216.52 33.9729 217.159 32.3753 217.159 30.4582Z" fill="#333333"/>
<path d="M256.939 43.7184C256.939 44.1178 256.779 44.3574 256.38 44.3574H249.351C248.951 44.3574 248.791 44.1178 248.791 43.6385C248.791 42.2806 248.871 40.2836 248.951 37.6476C249.031 35.0115 249.111 33.0146 249.111 31.6566C249.111 31.2572 249.031 31.0974 248.951 31.0176C248.791 31.0974 247.913 33.0944 246.315 37.0884C245.357 39.4049 244.398 41.7214 243.439 44.1178C243.28 44.4373 243.12 44.5971 242.96 44.677C242.88 44.677 242.641 44.677 242.161 44.677C241.442 44.677 241.043 44.5172 240.963 44.2776C240.244 42.8397 239.286 40.7629 238.167 37.9671C236.969 35.0115 236.011 32.9347 235.372 31.6566C235.372 31.5767 235.292 31.4968 235.212 31.417C235.132 31.4968 235.052 31.7365 235.052 31.9761C235.052 33.2542 235.052 35.1713 235.132 37.8073C235.212 40.3635 235.212 42.2806 235.212 43.6385C235.212 44.1178 235.052 44.3574 234.653 44.3574H228.103C227.863 44.3574 227.703 44.2776 227.623 44.1977C227.543 44.1178 227.543 43.958 227.543 43.7184C227.543 42.2806 227.623 40.1238 227.783 37.2482C227.943 34.3725 228.023 32.2158 228.023 30.7779C228.023 29.2602 227.943 26.3846 227.863 22.2308C227.863 21.1125 227.783 19.5149 227.703 17.3582V17.0386C227.703 16.799 227.943 16.6393 228.502 16.6393C229.221 16.6393 230.339 16.6393 231.777 16.5594C233.215 16.4795 234.333 16.4795 235.052 16.4795C235.212 16.4795 235.372 16.7191 235.691 17.2783L241.442 29.8992C241.842 30.7779 242.161 31.1773 242.481 31.1773C242.641 31.1773 242.96 30.698 243.439 29.7395C244.797 26.9437 246.715 22.79 249.351 17.2783C249.59 16.799 249.83 16.4795 250.069 16.4795C250.469 16.4795 251.028 16.4795 251.827 16.5594C252.626 16.6393 253.185 16.6393 253.584 16.6393C253.904 16.6393 254.383 16.6393 255.102 16.5594C255.741 16.4795 256.3 16.4795 256.62 16.4795C257.019 16.4795 257.179 16.6393 257.179 16.9588C257.179 18.4765 257.099 20.793 257.019 23.9083C256.939 27.0236 256.859 29.3401 256.859 30.8578C256.859 32.2956 256.939 34.4524 257.019 37.328C256.859 40.1238 256.939 42.2806 256.939 43.7184Z" fill="#333333"/>
<path d="M26.3471 41.4618C26.3471 41.4618 29.1461 42.2909 29.1461 43.8029C29.1461 45.3149 27.722 47.1196 25.5614 49.0706C23.4007 51.0216 20.0124 55.899 16.624 55.1674C13.2357 54.4358 7.44119 50.7777 6.99923 50.1436C6.55728 49.4608 6.90102 47.6561 10.7313 46.4368C14.5616 45.2174 22.9096 42.3885 22.9096 42.3885C22.9096 42.3885 25.7578 41.2667 26.3471 41.4618Z" fill="#333333"/>
<path d="M26.7399 34.3406C26.7399 34.3406 28.5568 37.2183 26.7399 38.2425C24.9229 39.218 16.624 40.5837 14.2669 40.6325C11.9098 40.6813 5.77154 38.8278 4.24925 35.0722C2.67785 31.2678 0.860921 24.6344 2.92338 21.4641C4.98584 18.3425 10.0929 17.0744 13.0392 20.1472C15.9856 23.22 23.8917 31.658 23.8917 31.658L26.7399 34.3406Z" fill="#333333"/>
<path d="M19.3739 14.8307C19.3739 14.8307 19.8159 18.1961 22.3694 22.4395C24.9229 26.6829 28.0657 31.9993 28.9496 32.731C29.8335 33.4626 32.5344 32.8285 32.6326 31.2677C32.7308 29.7069 35.4316 12.8309 35.4316 12.8309L36.07 6.39271C36.07 6.39271 35.6281 0.344664 31.2576 2.44197C26.8872 4.53928 20.0614 11.8067 20.0614 11.8067C20.0614 11.8067 19.1284 13.6601 19.3739 14.8307Z" fill="#333333"/>
<path d="M35.8245 31.5116C35.8245 31.5116 37.3959 33.6089 38.6727 33.3162C39.9494 32.9748 42.6994 29.5606 44.4181 27.6584C46.1368 25.7562 49.2305 22.4883 46.7752 18.8302C44.3199 15.1233 40.5387 12.7334 39.5566 16.1964C38.5744 19.6106 36.1191 28.8778 36.1191 28.8778C36.1191 28.8778 35.6772 30.6824 35.8245 31.5116Z" fill="#333333"/>
<path d="M40.8824 35.1207C40.8824 35.1207 38.6727 38.096 41.7663 39.3154C44.86 40.4859 51.1456 40.5835 55.1723 40.2908C59.199 39.9982 65.2391 38.4862 65.2882 35.7548C65.2882 33.0722 62.9311 31.17 60.7704 30.0482C58.6097 28.9264 53.6991 26.3901 53.6991 26.3901C53.6991 26.3901 51.7349 25.0244 49.5251 27.1217C47.3644 29.219 41.9628 33.9989 40.8824 35.1207Z" fill="#333333"/>
<path d="M39.6057 42.193C39.6057 42.193 41.0789 41.5589 42.503 41.8516C43.9271 42.1442 49.4761 43.0709 49.4269 45.0219C49.3778 46.9729 49.7707 49.3141 48.1993 51.4602C46.5788 53.6062 45.5967 54.9232 43.5833 52.4357C41.57 49.9969 38.9673 46.3876 38.9673 46.3876C38.9673 46.3876 37.445 43.4124 39.6057 42.193Z" fill="#333333"/>
<path d="M33.7129 44.6807C33.7129 44.6807 36.2173 44.827 37.003 47.4608C37.8378 50.0946 39.4092 54.9721 37.5923 56.1427C35.7754 57.3133 28.5077 58.9716 28.5077 58.9716C28.5077 58.9716 25.7577 59.4594 26.838 56.3866C27.9675 53.3138 29.9808 48.5826 29.9808 48.5826C29.9808 48.5826 31.4049 44.827 33.7129 44.6807Z" fill="#333333"/>
</svg>
