<svg width="23" height="19" viewBox="0 0 23 19" fill="none" xmlns="http://www.w3.org/2000/svg">
<path fill-rule="evenodd" clip-rule="evenodd" d="M22.9999 2.26007C22.1519 2.64007 21.2449 2.89607 20.2929 3.01107C21.2649 2.42007 22.0129 1.48307 22.3639 0.368066C21.4519 0.915066 20.4429 1.31207 19.3679 1.52807C18.5079 0.598066 17.2839 0.0180664 15.9279 0.0180664C13.3239 0.0180664 11.2109 2.15907 11.2109 4.79707C11.2109 5.17207 11.2539 5.53707 11.3329 5.88707C7.41292 5.68607 3.93792 3.78407 1.61192 0.891066C1.20792 1.59807 0.973916 2.42007 0.973916 3.29607C0.973916 4.95507 1.83892 6.41507 3.10592 7.27307C2.33092 7.24807 1.99992 7.03207 0.999916 6.67507C0.999916 6.69707 0.999916 6.71607 0.999916 6.73707C0.999916 9.05107 2.59292 10.9821 4.74992 11.4211C4.35392 11.5301 3.92092 11.5891 3.49192 11.5891C3.18992 11.5891 2.88492 11.5601 2.59592 11.5021C3.19692 13.4021 4.93492 14.7841 6.99692 14.8211C5.38392 16.1041 3.34792 16.8661 1.13892 16.8661C0.757916 16.8661 0.382916 16.8451 0.013916 16.8031C2.10092 18.1581 4.57892 18.9491 7.24192 18.9491C15.9179 18.9491 20.6599 11.6681 20.6599 5.35307C20.6599 5.14507 20.6559 4.94007 20.6459 4.73507C21.5659 4.05907 22.3669 3.21707 22.9999 2.26007Z" fill="#333333"/>
</svg>
